<?xml version="1.0" encoding="UTF-8"?>
<svg width="128px" height="128px" viewBox="0 0 128 128" version="1.1" xmlns="http://www.w3.org/2000/svg" xmlns:xlink="http://www.w3.org/1999/xlink">
    <!-- Generator: Sketch 52.5 (67469) - http://www.bohemiancoding.com/sketch -->
    <title>Stethoscope</title>
    <desc>Created with Sketch.</desc>
    <g id="Stethoscope" stroke="none" stroke-width="1" fill="none" fill-rule="evenodd">
        <g id="noun_Stethoscope_50098" transform="translate(19.000000, 18.000000)">
            <path d="M74.4289888,55.7646067 C71.5216854,55.7646067 69.1634831,58.1207865 69.1634831,61.0301124 C69.1634831,63.0050562 70.251573,64.7251685 71.8614607,65.6261798 C72.6219101,66.0529213 73.4966292,66.295618 74.4289888,66.295618 C75.0508989,66.295618 75.6475281,66.1864045 76.2026966,65.9882022 C78.2393258,65.2591011 79.6965169,63.3144944 79.6944944,61.0301124 C79.6944944,58.1207865 77.3383146,55.7646067 74.4289888,55.7646067 Z M76.5606742,63.6866292 C76.0024719,64.1093258 75.3077528,64.3641573 74.5513483,64.3641573 C73.6533708,64.3641573 72.8423596,64.007191 72.2426966,63.4317978 C71.6126966,62.8230337 71.2173034,61.9746067 71.2173034,61.0301124 C71.2173034,59.1876404 72.7108989,57.6940449 74.5513483,57.6940449 C76.392809,57.6940449 77.8874157,59.1876404 77.8874157,61.0301124 C77.8864045,62.1151685 77.3646067,63.0768539 76.5606742,63.6866292 Z" id="Shape"></path>
            <path d="M74.5513483,52.6722472 C69.8925843,52.6722472 66.1135955,56.4492135 66.1135955,61.1110112 C66.1135955,64.4925843 68.1047191,67.41 70.9786517,68.7549438 C67.8620225,77.8479775 59.94,87.3424719 50.6629213,87.3424719 C39.2794382,87.3424719 29.9335955,73.0516854 29.0073034,62.7411236 C30.9144944,61.9948315 32.4192135,60.3182022 33.0734831,58.2107865 C39.0630337,55.7676404 44.5934831,49.7831461 48.7992135,40.984382 C49.3553933,39.8204494 49.2289888,38.5078652 48.5807865,37.4946067 C51.2555056,30.9883146 52.8188764,23.8388764 52.8188764,17.6834831 C52.8188764,7.35977528 52.1170787,2.95280899 45.0252809,1.72011236 C44.498427,1.06786517 43.6934831,0.650224719 42.7874157,0.650224719 L36.6411236,0.650224719 C35.0514607,0.650224719 33.7621348,1.93853933 33.7621348,3.52921348 C33.7621348,3.53426966 33.7631461,3.53932584 33.7631461,3.54438202 C33.771236,5.12696629 35.0565169,6.40820225 36.6411236,6.40820225 L42.7874157,6.40820225 C43.3516854,6.40820225 43.8755056,6.24438202 44.3194382,5.9652809 C46.2397753,6.29089888 46.98,6.85011236 47.412809,7.59640449 C48.3289888,9.17898876 48.5019101,12.3623596 48.5019101,17.6844944 C48.5019101,23.3524719 47.0366292,29.9649438 44.5368539,35.9848315 C43.5913483,36.2629213 42.7631461,36.9222472 42.3050562,37.8808989 C38.0042697,46.8778652 32.2675281,52.2495506 26.9605618,52.2495506 C21.548427,52.2495506 15.5335955,46.4551685 11.2631461,37.1285393 C10.7565169,36.0202247 9.75640449,35.2951685 8.64303371,35.0898876 C6.36573034,29.3157303 5.04101124,23.0733708 5.04101124,17.6855056 C5.04101124,12.471573 5.23516854,9.1405618 6.22820225,7.54483146 C6.69842697,6.7894382 7.49730337,6.22820225 9.58752809,5.91775281 C10.0476404,6.22921348 10.6017978,6.41022472 11.198427,6.41022472 L17.3447191,6.41022472 C18.9333708,6.41022472 20.2206742,5.12494382 20.2237079,3.53730337 C20.2237079,3.5352809 20.2237079,3.53325843 20.2237079,3.53123596 C20.2237079,1.9405618 18.9353933,0.652247191 17.3447191,0.652247191 L11.198427,0.652247191 C10.3348315,0.652247191 9.56224719,1.03348315 9.03539326,1.63617978 C6.16550562,2.05685393 3.95696629,3.02258427 2.56146067,5.26247191 C1.00617978,7.76123596 0.722022472,11.4067416 0.722022472,17.6855056 C0.722022472,23.6922472 2.21460674,30.6444944 4.77101124,37.0233708 C4.30382022,37.962809 4.24719101,39.0974157 4.71842697,40.1258427 C7.1888764,45.5217978 10.3004494,50.1138202 13.7164045,53.4064045 C15.8420225,55.4531461 18.0960674,56.9973034 20.408764,58.0135955 C21.042809,60.2676404 22.6435955,62.0575281 24.6782022,62.7977528 C25.1261798,68.738764 27.8666292,75.5686517 32.0561798,81.0252809 C37.3237079,87.8844944 43.9311236,91.6634831 50.6619101,91.6634831 C57.3906742,91.6634831 63.9991011,87.8865169 69.265618,81.0252809 C71.9332584,77.5506742 74.0103371,73.5208989 75.2865169,69.5174157 C79.6014607,69.1442697 82.9870787,65.5260674 82.9870787,61.1120225 C82.9880899,56.4492135 79.2111236,52.6722472 74.5513483,52.6722472 Z M76.2016854,65.9882022 C75.6465169,66.1853933 75.0498876,66.295618 74.4279775,66.295618 C73.495618,66.295618 72.6208989,66.0529213 71.8604494,65.6261798 C70.2505618,64.7251685 69.1624719,63.0050562 69.1624719,61.0301124 C69.1624719,58.1207865 71.5206742,55.7646067 74.4279775,55.7646067 C77.3373034,55.7646067 79.6934831,58.1207865 79.6934831,61.0301124 C79.6965169,63.3144944 78.2383146,65.2591011 76.2016854,65.9882022 Z" id="Shape" fill="#000000" fill-rule="nonzero"></path>
            <path d="M74.5513483,57.6940449 C72.7108989,57.6940449 71.2173034,59.1876404 71.2173034,61.0301124 C71.2173034,61.9746067 71.6126966,62.8230337 72.2426966,63.4317978 C72.8423596,64.007191 73.654382,64.3641573 74.5513483,64.3641573 C75.3077528,64.3641573 76.0034831,64.1093258 76.5606742,63.6866292 C77.3646067,63.0768539 77.8874157,62.1151685 77.8874157,61.0301124 C77.8864045,59.1866292 76.392809,57.6940449 74.5513483,57.6940449 Z" id="Path" fill="#000000"></path>
            <path d="M74.5523596,18.8110112 C66.1762921,18.8110112 59.3838202,25.6024719 59.3838202,33.9795506 C59.3838202,42.3566292 66.1762921,49.1480899 74.5523596,49.1480899 C82.9304494,49.1480899 89.7208989,42.3566292 89.7208989,33.9795506 C89.7208989,25.6024719 82.9304494,18.8110112 74.5523596,18.8110112 Z M81.63,35.9261798 L76.5,35.9261798 L76.5,41.0582022 L72.6026966,41.0582022 L72.6026966,35.9261798 L67.4737079,35.9261798 L67.4737079,32.0319101 L72.6026966,32.0319101 L72.6026966,26.8998876 L76.5,26.8998876 L76.5,32.0319101 L81.6289888,32.0319101 L81.6289888,35.9261798 L81.63,35.9261798 Z" id="Shape" fill="#000000" fill-rule="nonzero"></path>
        </g>
    </g>
</svg>